<?xml version="1.0" encoding="iso-8859-1"?>

<svg version="1.1" id="Capa_1" xmlns="http://www.w3.org/2000/svg" xmlns:xlink="http://www.w3.org/1999/xlink" x="0px" y="0px"
	 viewBox="0 0 345.172 345.172" width="345px" height="345px" style="enable-background:new 0 0 345.172 345.172;" xml:space="preserve">

	<path style="fill:#77BC4A;" d="M320.277,128.123c-37.2-76-166.8-127.2-306.8-117.2c59.6,50.8,59.2,138,92,205.6
		c48.4,94.4,140,84,190,34.8C327.477,220.523,342.677,174.123,320.277,128.123z"/>
	<path style="fill:#023600;" d="M341.077,331.723c-9.2-27.6-20.4-53.6-33.6-78.4c0.4-0.4,0.8-1.2,1.6-1.6c30-33.6,42.8-81.2,20-128
		c-20-40.4-64-74-121.6-96c-55.6-21.2-124-31.6-194.8-26.4c-5.6,0.4-9.6,5.2-9.2,10.4c0.4,2.8,1.6,5.2,3.6,7.2
		c35.6,30.8,48.8,77.2,62,123.2c8,27.2,15.6,54.4,27.6,79.2c0,0.4,0.4,0.4,0.4,0.8c30,58,76,78.8,119.6,76c17.6-1.2,35.2-6,50.8-14
		c8.8-4.4,17.6-10,25.2-16.4c11.6,22.4,21.2,46,29.6,70.8c1.6,5.2,7.2,8,12.4,6C340.277,342.523,343.077,336.923,341.077,331.723z
		M258.677,266.523c-13.6,6.8-28,11.2-43.2,12c-36.8,2.4-75.2-15.6-100.8-65.6v-0.4c-11.6-23.2-18.8-49.6-26-75.6
		c-12-42-23.6-84-52-116.8c60-1.6,117.2,8.4,164.4,26.4c52.8,20,93.2,50.4,110.8,86.4c18,36.8,8.8,74.8-14,102.4
		c-10.4-17.6-21.6-34.4-34-50c-33.6-43.2-76-80-128-109.2c-4.8-2.8-10.8-0.8-13.2,3.6c-2.8,4.8-0.8,10.8,3.6,13.2
		c49.6,28,89.6,63.2,122,104.4c12.8,16.4,24.4,34,35.2,52.8C275.877,256.123,267.477,261.723,258.677,266.523z"/>
		
</svg>
